<?xml version="1.0" standalone="no"?>
<!DOCTYPE svg PUBLIC "-//W3C//DTD SVG 20010904//EN"
 "http://www.w3.org/TR/2001/REC-SVG-20010904/DTD/svg10.dtd">
<svg version="1.0" xmlns="http://www.w3.org/2000/svg"
 width="129.000000pt" height="123.000000pt" viewBox="0 0 129.000000 123.000000"
 preserveAspectRatio="xMidYMid meet">

<g transform="translate(0.000000,123.000000) scale(0.100000,-0.100000)"
fill="white" stroke="none">
<path d="M270 570 c0 -231 3 -420 8 -420 4 0 66 62 139 137 130 137 131 138
112 158 -19 19 -20 19 -97 -58 -42 -42 -81 -77 -85 -77 -4 0 -7 140 -7 310 l0
311 58 -3 57 -3 5 -172 5 -171 183 -211 183 -211 145 0 c93 0 144 4 144 10 0
6 -79 101 -176 211 -169 191 -177 199 -195 183 -11 -10 -19 -20 -19 -23 0 -4
59 -73 130 -155 72 -82 130 -153 130 -158 0 -4 -27 -8 -60 -8 -73 0 -66 -6
-269 227 l-141 162 0 190 0 191 -125 0 -125 0 0 -420z"/>
<path d="M681 858 l-121 -133 37 -37 c36 -37 38 -38 56 -19 16 15 17 21 6 39
-11 18 -4 29 76 116 48 53 91 96 94 97 22 4 108 5 115 1 4 -3 -70 -83 -165
-178 l-174 -174 23 -22 22 -23 126 125 c69 69 171 173 226 233 l100 107 -150
0 -151 0 -120 -132z"/>
</g>
</svg>
